<?xml version="1.0" encoding="UTF-8" standalone="no"?>
<!DOCTYPE svg PUBLIC "-//W3C//DTD SVG 20010904//EN"
              "http://www.w3.org/TR/2001/REC-SVG-20010904/DTD/svg10.dtd">

<svg xmlns="http://www.w3.org/2000/svg"
     width="23.2444in" height="7.34444in"
     viewBox="0 0 2092 661">
  <path id="Selection"
        fill="gray" stroke="black" stroke-width="1"
        d="M 611.29,249.00
           C 612.65,238.56 616.66,227.12 621.87,218.00
             635.58,194.04 660.39,177.79 685.00,166.70
             714.52,153.38 741.30,150.00 773.00,146.83
             773.00,146.83 816.00,144.00 816.00,144.00
             816.00,144.00 831.00,143.00 831.00,143.00
             831.00,143.00 861.00,142.00 861.00,142.00
             861.00,142.00 871.00,141.00 871.00,141.00
             871.00,141.00 883.00,141.00 883.00,141.00
             883.00,141.00 895.00,140.00 895.00,140.00
             895.00,140.00 912.00,140.00 912.00,140.00
             912.00,140.00 940.00,138.00 940.00,138.00
             940.00,138.00 963.00,136.91 963.00,136.91
             963.00,136.91 974.00,136.00 974.00,136.00
             978.46,135.98 989.21,135.49 993.00,133.69
             996.80,131.88 1013.59,116.93 1018.00,113.13
             1030.07,102.75 1045.76,90.87 1059.00,82.00
             1097.69,56.08 1130.39,39.76 1173.00,21.58
             1193.21,12.96 1212.28,6.61 1234.00,2.92
             1240.64,1.79 1247.23,0.08 1254.00,0.00
             1268.81,-0.17 1284.82,-0.43 1298.00,7.48
             1322.19,21.99 1323.60,50.85 1303.96,69.91
             1291.48,82.03 1262.58,94.82 1246.00,101.40
             1207.34,116.74 1166.76,124.97 1126.00,132.61
             1126.00,132.61 1090.00,139.41 1090.00,139.41
             1090.00,139.41 1048.00,145.58 1048.00,145.58
             1043.10,146.27 1031.83,147.00 1028.00,148.64
             1021.09,151.58 1012.72,161.32 1007.72,167.00
             1007.72,167.00 996.09,179.00 996.09,179.00
             996.09,179.00 987.00,189.00 987.00,189.00
             942.18,234.41 909.61,290.11 878.00,345.00
             878.00,345.00 923.00,331.31 923.00,331.31
             955.50,319.74 996.10,300.49 1024.00,280.42
             1026.88,278.35 1028.32,277.37 1031.00,274.91
             1031.00,274.91 1036.00,270.00 1036.00,270.00
             1042.21,263.81 1051.21,253.77 1061.00,256.80
             1063.99,257.73 1066.28,259.33 1067.91,262.04
             1071.96,268.78 1067.74,276.03 1062.96,280.99
             1055.95,288.23 1046.76,293.16 1039.00,299.61
             1034.31,303.52 1029.68,309.21 1025.80,314.00
             1001.43,344.09 983.03,375.21 973.63,413.00
             971.77,420.45 969.90,428.35 969.17,436.00
             969.17,436.00 971.00,470.00 971.00,470.00
             968.50,468.15 966.75,466.90 965.31,464.00
             963.54,460.41 963.01,451.16 963.00,447.00
             963.00,447.00 963.00,422.00 963.00,422.00
             963.24,401.72 976.96,363.62 985.78,345.00
             985.78,345.00 997.00,323.00 997.00,323.00
             997.00,323.00 981.00,330.58 981.00,330.58
             956.03,341.43 935.16,349.29 909.00,356.97
             909.00,356.97 880.00,363.60 880.00,363.60
             875.24,364.55 868.92,365.22 865.18,368.42
             861.93,371.20 850.50,390.05 847.31,395.00
             847.31,395.00 831.00,419.00 831.00,419.00
             831.00,419.00 810.85,449.00 810.85,449.00
             773.17,500.88 734.91,540.46 681.00,575.66
             623.84,612.98 554.89,637.09 488.00,649.61
             475.25,652.00 434.17,658.86 423.00,659.00
             423.00,659.00 401.00,660.09 401.00,660.09
             401.00,660.09 393.00,660.92 393.00,660.92
             393.00,660.92 382.00,660.00 382.00,660.00
             382.00,660.00 368.00,660.00 368.00,660.00
             368.00,660.00 345.00,658.17 345.00,658.17
             294.44,653.11 249.07,640.23 202.00,621.40
             162.17,605.47 123.98,584.75 92.00,555.83
             38.19,507.17 5.02,441.50 0.09,369.00
             0.09,369.00 1.00,353.00 1.00,353.00
             1.74,289.20 34.24,228.46 81.00,186.17
             92.52,175.75 105.05,166.54 118.00,158.00
             160.91,129.71 215.30,111.74 266.00,104.27
             266.00,104.27 298.00,100.83 298.00,100.83
             298.00,100.83 330.00,98.00 330.00,98.00
             362.14,97.95 394.69,100.84 426.00,108.63
             473.81,120.52 527.06,143.41 561.96,179.01
             583.48,200.97 596.88,225.00 606.33,254.00
             610.53,266.88 611.85,280.53 612.00,294.00
             612.00,294.00 612.66,303.00 612.66,303.00
             612.66,315.67 610.12,328.86 606.58,341.00
             584.43,416.75 513.64,454.87 441.00,469.40
             424.48,472.70 404.79,475.81 388.00,476.00
             388.00,476.00 373.00,477.00 373.00,477.00
             373.00,477.00 364.00,477.00 364.00,477.00
             364.00,477.00 343.00,475.00 343.00,475.00
             343.00,475.00 333.00,475.00 333.00,475.00
             333.00,475.00 310.00,471.40 310.00,471.40
             302.84,469.97 294.96,470.05 291.00,463.00
             291.00,463.00 339.00,469.00 339.00,469.00
             339.00,469.00 348.00,469.00 348.00,469.00
             348.00,469.00 359.00,469.98 359.00,469.98
             359.00,469.98 378.00,468.00 378.00,468.00
             378.00,468.00 386.00,468.00 386.00,468.00
             407.08,465.82 413.94,463.88 434.00,459.42
             434.00,459.42 464.00,452.28 464.00,452.28
             484.24,446.27 510.85,432.68 528.00,420.42
             559.55,397.87 582.97,369.34 591.42,331.00
             592.94,324.13 594.92,313.93 595.00,307.00
             595.00,307.00 595.00,294.00 595.00,294.00
             594.85,281.43 590.04,261.89 585.68,250.00
             577.37,227.31 566.82,209.54 549.96,192.00
             533.13,174.48 510.79,160.69 489.00,150.22
             438.59,126.00 386.51,117.35 331.00,118.00
             331.00,118.00 293.00,121.83 293.00,121.83
             211.97,129.93 132.20,161.19 78.00,224.00
             58.24,246.89 43.03,272.02 34.02,301.00
             26.05,326.65 24.69,345.42 25.00,372.00
             25.20,388.80 33.01,418.05 38.95,434.00
             63.76,500.56 114.00,550.75 177.00,582.25
             214.84,601.16 243.28,611.19 284.00,621.88
             311.45,629.09 332.83,632.15 361.00,634.09
             361.00,634.09 373.00,635.00 373.00,635.00
             373.00,635.00 399.00,635.00 399.00,635.00
             399.00,635.00 424.00,633.09 424.00,633.09
             424.00,633.09 443.00,631.83 443.00,631.83
             443.00,631.83 484.00,624.61 484.00,624.61
             532.87,615.47 579.16,600.40 623.00,576.69
             672.30,550.03 719.98,509.27 755.39,466.00
             755.39,466.00 779.15,434.00 779.15,434.00
             779.15,434.00 808.28,394.00 808.28,394.00
             808.28,394.00 824.00,371.00 824.00,371.00
             807.23,373.21 783.75,375.93 768.00,380.43
             738.41,388.87 714.99,402.54 692.00,422.95
             672.64,440.14 660.74,452.98 656.00,479.00
             656.00,479.00 652.00,479.00 652.00,479.00
             652.00,453.63 664.76,437.24 682.00,420.00
             709.30,392.70 736.24,373.84 774.00,363.88
             774.00,363.88 816.00,355.61 816.00,355.61
             822.11,354.53 830.01,354.95 834.91,350.72
             839.26,346.96 849.94,328.86 853.28,323.00
             853.28,323.00 879.42,279.00 879.42,279.00
             909.49,230.48 936.34,192.66 977.00,152.00
             977.00,152.00 957.00,153.00 957.00,153.00
             957.00,153.00 931.00,153.00 931.00,153.00
             931.00,153.00 914.00,154.00 914.00,154.00
             914.00,154.00 873.00,154.00 873.00,154.00
             873.00,154.00 857.00,155.00 857.00,155.00
             857.00,155.00 839.00,156.00 839.00,156.00
             839.00,156.00 812.00,156.00 812.00,156.00
             812.00,156.00 775.00,158.91 775.00,158.91
             748.47,160.74 722.17,163.83 697.00,173.05
             662.14,185.83 627.48,207.80 617.87,246.00
             616.10,253.05 615.07,255.56 615.00,263.00
             615.00,263.00 610.00,262.00 610.00,262.00
             610.00,262.00 611.29,249.00 611.29,249.00 Z
           M 1255.00,44.00
           C 1236.32,43.79 1214.94,48.46 1197.00,53.58
             1163.07,63.26 1139.31,74.10 1108.00,89.75
             1108.00,89.75 1071.00,110.81 1071.00,110.81
             1063.80,115.27 1054.05,121.28 1049.00,128.00
             1083.05,123.50 1116.70,116.70 1150.00,108.37
             1174.20,102.32 1197.14,96.61 1220.00,86.30
             1239.21,77.64 1264.34,65.70 1274.00,46.00
             1274.00,46.00 1255.00,44.00 1255.00,44.00 Z
           M 1004.00,223.66
           C 1015.57,215.79 1027.49,209.01 1040.00,202.75
             1078.04,183.73 1116.85,166.94 1158.00,155.85
             1170.80,152.40 1198.35,146.15 1211.00,146.00
             1224.09,145.85 1235.30,145.99 1248.00,150.03
             1254.04,151.95 1258.16,154.15 1263.00,158.30
             1272.25,166.22 1275.90,173.14 1277.16,185.00
             1279.92,210.75 1267.53,230.40 1251.15,249.00
             1251.15,249.00 1240.00,260.91 1240.00,260.91
             1222.22,277.48 1204.23,289.83 1184.00,303.00
             1184.00,303.00 1142.00,326.31 1142.00,326.31
             1125.01,335.50 1107.97,344.81 1090.00,352.00
             1095.77,357.77 1100.76,362.69 1104.68,370.00
             1112.78,385.10 1112.19,397.56 1112.00,414.00
             1111.88,423.85 1108.32,438.28 1105.87,448.00
             1105.87,448.00 1088.86,507.00 1088.86,507.00
             1082.55,529.01 1073.99,556.74 1094.04,574.70
             1098.47,578.67 1103.64,581.70 1109.00,584.22
             1114.30,586.71 1123.24,589.56 1129.00,590.79
             1138.78,592.88 1151.05,594.98 1161.00,595.00
             1161.00,595.00 1200.00,595.00 1200.00,595.00
             1200.00,595.00 1228.00,592.17 1228.00,592.17
             1228.00,592.17 1264.00,588.72 1264.00,588.72
             1264.00,588.72 1306.00,582.42 1306.00,582.42
             1306.00,582.42 1453.00,560.27 1453.00,560.27
             1453.00,560.27 1582.00,541.73 1582.00,541.73
             1582.00,541.73 1639.00,533.28 1639.00,533.28
             1639.00,533.28 1725.00,523.84 1725.00,523.84
             1725.00,523.84 1761.00,519.17 1761.00,519.17
             1761.00,519.17 1818.00,514.91 1818.00,514.91
             1818.00,514.91 1848.00,512.91 1848.00,512.91
             1848.00,512.91 1860.00,512.00 1860.00,512.00
             1860.00,512.00 1936.00,512.00 1936.00,512.00
             1936.00,512.00 1957.00,513.00 1957.00,513.00
             1957.00,513.00 1967.00,513.91 1967.00,513.91
             1967.00,513.91 1997.00,516.83 1997.00,516.83
             1997.00,516.83 2057.00,523.27 2057.00,523.27
             2068.43,524.90 2084.02,523.05 2092.00,533.00
             2092.00,533.00 2071.00,531.17 2071.00,531.17
             2071.00,531.17 2045.00,528.84 2045.00,528.84
             2045.00,528.84 2021.00,526.00 2021.00,526.00
             2021.00,526.00 2012.00,526.00 2012.00,526.00
             2012.00,526.00 1997.00,525.00 1997.00,525.00
             1997.00,525.00 1980.00,524.00 1980.00,524.00
             1980.00,524.00 1957.00,523.00 1957.00,523.00
             1957.00,523.00 1942.00,522.00 1942.00,522.00
             1942.00,522.00 1921.00,522.00 1921.00,522.00
             1921.00,522.00 1905.00,523.00 1905.00,523.00
             1870.12,523.05 1835.69,526.47 1801.00,529.83
             1801.00,529.83 1774.00,532.28 1774.00,532.28
             1774.00,532.28 1730.00,538.72 1730.00,538.72
             1730.00,538.72 1656.00,548.42 1656.00,548.42
             1656.00,548.42 1609.00,556.75 1609.00,556.75
             1609.00,556.75 1502.00,575.61 1502.00,575.61
             1502.00,575.61 1443.00,587.80 1443.00,587.80
             1443.00,587.80 1369.00,601.61 1369.00,601.61
             1369.00,601.61 1301.00,614.75 1301.00,614.75
             1301.00,614.75 1247.00,622.15 1247.00,622.15
             1247.00,622.15 1200.00,627.00 1200.00,627.00
             1200.00,627.00 1186.00,627.00 1186.00,627.00
             1186.00,627.00 1175.00,627.92 1175.00,627.92
             1175.00,627.92 1164.00,627.00 1164.00,627.00
             1153.38,626.88 1139.41,626.24 1129.00,624.56
             1105.30,620.74 1076.50,607.18 1063.87,586.00
             1060.60,580.53 1058.17,575.14 1056.43,569.00
             1054.54,562.33 1052.86,551.90 1053.01,545.00
             1053.55,521.46 1061.44,497.67 1067.11,475.00
             1067.11,475.00 1071.87,454.00 1071.87,454.00
             1074.36,444.03 1078.88,425.84 1079.00,416.00
             1079.12,405.50 1079.93,394.18 1073.89,385.00
             1068.13,376.23 1055.64,368.32 1055.04,357.00
             1054.02,337.53 1072.28,337.30 1086.00,332.31
             1086.00,332.31 1109.00,321.76 1109.00,321.76
             1148.52,302.34 1188.58,283.02 1222.00,253.71
             1222.00,253.71 1237.00,239.00 1237.00,239.00
             1251.50,224.50 1270.20,199.85 1260.47,178.00
             1256.14,168.26 1245.93,163.18 1236.00,161.01
             1236.00,161.01 1217.00,158.18 1217.00,158.18
             1217.00,158.18 1186.00,161.58 1186.00,161.58
             1135.86,168.28 1075.19,193.50 1030.00,216.25
             1030.00,216.25 989.00,240.00 989.00,240.00
             991.25,231.35 997.07,228.37 1004.00,223.66 Z
           M 997.00,322.00
           C 997.00,322.00 998.00,323.00 998.00,323.00
             998.00,323.00 998.00,322.00 998.00,322.00
             998.00,322.00 997.00,322.00 997.00,322.00 Z" />
</svg>
