<?xml version="1.0" encoding="UTF-8" standalone="no"?>
<!DOCTYPE svg PUBLIC "-//W3C//DTD SVG 20010904//EN"
              "http://www.w3.org/TR/2001/REC-SVG-20010904/DTD/svg10.dtd">

<svg xmlns="http://www.w3.org/2000/svg"
     width="55.5556in" height="42.9306in"
     viewBox="0 0 4000 3091">
  <path id="Selection #4"
        fill="black" stroke="black" stroke-width="1"
        d="M 1810.00,1268.23
           C 1838.41,1255.30 1871.32,1253.02 1902.00,1250.91
             1902.00,1250.91 1965.00,1248.00 1965.00,1248.00
             1965.00,1248.00 1980.00,1247.00 1980.00,1247.00
             1980.00,1247.00 1995.00,1247.00 1995.00,1247.00
             1995.00,1247.00 2009.00,1246.00 2009.00,1246.00
             2009.00,1246.00 2040.00,1244.09 2040.00,1244.09
             2044.26,1243.80 2053.35,1243.82 2057.00,1241.98
             2057.00,1241.98 2079.00,1223.13 2079.00,1223.13
             2090.40,1213.45 2102.56,1204.81 2115.00,1196.51
             2139.98,1179.86 2167.51,1166.38 2195.00,1154.50
             2216.05,1145.40 2229.26,1140.75 2252.00,1136.92
             2257.58,1135.98 2260.13,1135.07 2266.00,1135.00
             2277.57,1134.87 2289.98,1135.52 2300.00,1142.11
             2318.14,1154.03 2318.26,1175.48 2302.96,1189.83
             2291.66,1200.42 2264.95,1212.11 2250.00,1217.34
             2250.00,1217.34 2241.00,1220.80 2241.00,1220.80
             2215.92,1229.13 2180.36,1236.10 2154.00,1241.09
             2154.00,1241.09 2135.00,1244.73 2135.00,1244.73
             2135.00,1244.73 2101.00,1249.72 2101.00,1249.72
             2101.00,1249.72 2083.00,1251.89 2083.00,1251.89
             2078.79,1253.50 2073.31,1259.69 2070.00,1263.00
             2070.00,1263.00 2043.72,1291.00 2043.72,1291.00
             2016.48,1321.96 2004.53,1339.16 1983.19,1374.00
             1983.19,1374.00 1961.00,1412.00 1961.00,1412.00
             1961.00,1412.00 1978.00,1407.27 1978.00,1407.27
             1978.00,1407.27 1998.00,1400.91 1998.00,1400.91
             2020.74,1392.80 2040.93,1383.44 2062.00,1371.69
             2068.74,1367.93 2082.52,1358.99 2088.00,1353.91
             2092.29,1349.93 2099.31,1341.10 2105.00,1340.24
             2112.65,1339.09 2119.92,1346.97 2112.72,1356.00
             2105.72,1364.78 2094.68,1368.71 2087.28,1377.00
             2066.83,1399.94 2047.14,1430.95 2039.63,1461.00
             2037.65,1468.92 2034.63,1480.92 2035.09,1489.00
             2035.09,1489.00 2037.00,1509.00 2037.00,1509.00
             2035.32,1507.57 2034.48,1507.16 2033.59,1504.96
             2031.55,1499.87 2031.93,1479.48 2032.00,1473.00
             2032.20,1455.86 2043.55,1424.54 2051.27,1409.00
             2051.27,1409.00 2062.00,1389.00 2062.00,1389.00
             2055.27,1393.81 2047.51,1396.81 2040.00,1400.17
             2022.42,1408.07 2004.52,1414.30 1986.00,1419.57
             1986.00,1419.57 1962.00,1425.00 1962.00,1425.00
             1958.44,1425.72 1954.22,1425.69 1951.53,1428.31
             1951.53,1428.31 1938.86,1448.00 1938.86,1448.00
             1938.86,1448.00 1910.12,1491.00 1910.12,1491.00
             1875.35,1538.24 1844.43,1570.17 1794.00,1600.94
             1748.03,1628.98 1686.23,1648.60 1633.00,1656.27
             1620.25,1658.11 1605.72,1660.98 1593.00,1661.00
             1593.00,1661.00 1578.00,1662.00 1578.00,1662.00
             1516.40,1662.72 1460.94,1648.10 1405.00,1623.02
             1341.12,1594.39 1290.68,1545.03 1270.41,1477.00
             1266.61,1464.26 1262.16,1444.17 1262.00,1431.00
             1261.78,1411.84 1263.32,1392.42 1269.02,1374.00
             1274.43,1356.53 1280.43,1342.55 1290.23,1327.00
             1332.81,1259.39 1411.95,1224.66 1489.00,1216.83
             1489.00,1216.83 1519.00,1214.00 1519.00,1214.00
             1519.00,1214.00 1544.00,1214.00 1544.00,1214.00
             1556.08,1214.02 1570.90,1216.70 1583.00,1218.58
             1602.59,1221.62 1621.59,1227.19 1640.00,1234.55
             1691.24,1255.03 1732.36,1288.81 1746.71,1344.00
             1748.91,1352.44 1750.10,1368.16 1750.00,1377.00
             1749.87,1387.55 1747.97,1397.95 1744.88,1408.00
             1720.11,1488.69 1625.66,1515.88 1550.00,1515.00
             1550.00,1515.00 1540.00,1514.09 1540.00,1514.09
             1529.45,1513.37 1519.34,1513.18 1509.00,1510.58
             1503.57,1509.21 1499.28,1509.94 1495.00,1506.00
             1510.23,1508.74 1535.62,1511.18 1551.00,1511.00
             1551.00,1511.00 1561.00,1510.09 1561.00,1510.09
             1572.02,1509.34 1582.11,1508.62 1593.00,1506.45
             1593.00,1506.45 1632.00,1497.25 1632.00,1497.25
             1676.38,1483.03 1722.72,1450.73 1734.12,1403.00
             1735.83,1395.82 1737.91,1384.27 1738.00,1377.00
             1738.00,1377.00 1738.00,1373.00 1738.00,1373.00
             1737.88,1362.87 1734.47,1345.56 1731.05,1336.00
             1726.55,1323.44 1722.85,1315.16 1715.25,1304.00
             1700.82,1282.79 1679.71,1267.14 1657.00,1255.75
             1627.15,1240.79 1591.31,1231.24 1558.00,1228.91
             1558.00,1228.91 1546.00,1228.00 1546.00,1228.00
             1546.00,1228.00 1524.00,1228.00 1524.00,1228.00
             1524.00,1228.00 1514.00,1228.91 1514.00,1228.91
             1514.00,1228.91 1486.00,1231.87 1486.00,1231.87
             1459.65,1235.53 1433.71,1241.83 1409.00,1251.75
             1354.50,1273.65 1303.95,1318.57 1286.72,1376.00
             1280.67,1396.15 1279.76,1410.21 1280.00,1431.00
             1280.17,1445.47 1285.47,1466.28 1290.31,1480.00
             1309.48,1534.37 1350.98,1575.74 1402.00,1601.25
             1434.50,1617.50 1469.37,1629.68 1505.00,1636.80
             1520.43,1639.88 1526.11,1640.98 1542.00,1642.09
             1542.00,1642.09 1554.00,1643.00 1554.00,1643.00
             1554.00,1643.00 1585.00,1643.00 1585.00,1643.00
             1585.00,1643.00 1617.00,1640.57 1617.00,1640.57
             1617.00,1640.57 1635.00,1637.27 1635.00,1637.27
             1674.78,1631.14 1713.97,1619.87 1750.00,1601.73
             1796.55,1578.29 1835.42,1545.23 1868.39,1505.00
             1868.39,1505.00 1904.98,1455.00 1904.98,1455.00
             1904.98,1455.00 1922.00,1430.00 1922.00,1430.00
             1922.00,1430.00 1885.00,1435.23 1885.00,1435.23
             1855.02,1442.19 1836.26,1452.34 1813.00,1472.42
             1800.41,1483.29 1785.95,1499.56 1785.00,1517.00
             1785.00,1517.00 1783.00,1517.00 1783.00,1517.00
             1783.17,1498.32 1794.30,1483.76 1807.00,1471.00
             1830.12,1447.77 1851.19,1434.21 1883.00,1425.64
             1883.00,1425.64 1915.00,1419.58 1915.00,1419.58
             1918.59,1419.05 1926.86,1418.53 1929.48,1416.40
             1931.75,1414.57 1939.04,1402.26 1941.00,1399.00
             1941.00,1399.00 1964.68,1359.00 1964.68,1359.00
             1990.87,1316.97 2009.49,1290.51 2045.00,1255.00
             2045.00,1255.00 2023.00,1256.00 2023.00,1256.00
             2023.00,1256.00 2004.00,1256.00 2004.00,1256.00
             2004.00,1256.00 1988.00,1257.00 1988.00,1257.00
             1988.00,1257.00 1955.00,1257.00 1955.00,1257.00
             1955.00,1257.00 1938.00,1258.00 1938.00,1258.00
             1938.00,1258.00 1912.00,1258.00 1912.00,1258.00
             1912.00,1258.00 1889.00,1259.91 1889.00,1259.91
             1864.10,1261.61 1841.76,1263.26 1818.00,1271.95
             1789.59,1282.33 1760.83,1300.30 1753.89,1332.00
             1752.48,1338.39 1752.07,1336.81 1752.00,1344.00
             1752.00,1344.00 1750.00,1344.00 1750.00,1344.00
             1750.00,1305.91 1777.81,1282.89 1810.00,1268.23 Z
           M 2227.00,1174.12
           C 2194.62,1182.62 2168.40,1193.76 2139.00,1209.69
             2128.74,1215.26 2103.95,1229.78 2097.00,1238.00
             2127.46,1233.98 2157.27,1228.11 2187.00,1220.38
             2204.61,1215.80 2222.56,1211.28 2239.00,1203.24
             2254.32,1195.76 2273.12,1187.05 2281.00,1171.00
             2265.65,1166.56 2242.36,1170.08 2227.00,1174.12 Z
           M 2065.00,1313.86
           C 2076.63,1305.56 2092.07,1298.00 2105.00,1291.74
             2133.62,1277.88 2165.94,1264.57 2197.00,1257.58
             2209.24,1254.82 2220.29,1252.15 2233.00,1252.00
             2240.78,1251.91 2247.38,1252.28 2255.00,1254.13
             2260.48,1255.46 2264.47,1257.02 2269.00,1260.53
             2272.00,1262.85 2274.86,1265.91 2277.06,1269.00
             2281.89,1275.77 2282.09,1281.07 2282.00,1289.00
             2281.74,1311.44 2264.44,1330.56 2249.00,1345.02
             2235.06,1358.08 2219.03,1368.55 2203.00,1378.82
             2203.00,1378.82 2158.00,1403.25 2158.00,1403.25
             2158.00,1403.25 2131.00,1416.00 2131.00,1416.00
             2135.89,1420.34 2139.04,1423.32 2142.53,1429.00
             2157.59,1453.44 2146.25,1487.74 2138.72,1513.00
             2138.72,1513.00 2129.98,1543.00 2129.98,1543.00
             2123.14,1565.30 2119.93,1589.37 2145.00,1601.51
             2150.43,1604.14 2156.11,1606.26 2162.00,1607.58
             2170.20,1609.41 2178.58,1610.99 2187.00,1611.00
             2187.00,1611.00 2225.00,1611.00 2225.00,1611.00
             2225.00,1611.00 2242.00,1609.17 2242.00,1609.17
             2242.00,1609.17 2277.00,1605.72 2277.00,1605.72
             2277.00,1605.72 2299.00,1602.28 2299.00,1602.28
             2299.00,1602.28 2445.00,1580.27 2445.00,1580.27
             2445.00,1580.27 2547.00,1565.72 2547.00,1565.72
             2547.00,1565.72 2569.00,1562.28 2569.00,1562.28
             2569.00,1562.28 2645.00,1553.83 2645.00,1553.83
             2645.00,1553.83 2664.00,1551.17 2664.00,1551.17
             2664.00,1551.17 2717.00,1546.91 2717.00,1546.91
             2717.00,1546.91 2746.00,1545.00 2746.00,1545.00
             2746.00,1545.00 2811.00,1545.00 2811.00,1545.00
             2811.00,1545.00 2831.00,1546.00 2831.00,1546.00
             2831.00,1546.00 2895.00,1552.17 2895.00,1552.17
             2895.00,1552.17 2906.00,1553.93 2906.00,1553.93
             2912.63,1554.55 2929.08,1554.78 2933.00,1560.00
             2933.00,1560.00 2899.00,1556.83 2899.00,1556.83
             2899.00,1556.83 2887.00,1555.17 2887.00,1555.17
             2887.00,1555.17 2867.00,1553.91 2867.00,1553.91
             2867.00,1553.91 2829.00,1552.00 2829.00,1552.00
             2829.00,1552.00 2813.00,1551.04 2813.00,1551.04
             2813.00,1551.04 2797.00,1551.04 2797.00,1551.04
             2797.00,1551.04 2786.00,1552.00 2786.00,1552.00
             2786.00,1552.00 2770.00,1552.00 2770.00,1552.00
             2770.00,1552.00 2760.00,1552.96 2760.00,1552.96
             2760.00,1552.96 2750.00,1552.96 2750.00,1552.96
             2750.00,1552.96 2728.00,1554.83 2728.00,1554.83
             2728.00,1554.83 2680.00,1559.28 2680.00,1559.28
             2680.00,1559.28 2650.00,1563.72 2650.00,1563.72
             2650.00,1563.72 2585.00,1572.27 2585.00,1572.27
             2585.00,1572.27 2543.00,1579.74 2543.00,1579.74
             2543.00,1579.74 2521.00,1583.26 2521.00,1583.26
             2521.00,1583.26 2459.00,1594.61 2459.00,1594.61
             2459.00,1594.61 2419.00,1603.00 2419.00,1603.00
             2419.00,1603.00 2342.00,1617.42 2342.00,1617.42
             2342.00,1617.42 2299.00,1625.75 2299.00,1625.75
             2299.00,1625.75 2274.00,1629.29 2274.00,1629.29
             2274.00,1629.29 2236.00,1634.09 2236.00,1634.09
             2236.00,1634.09 2224.00,1635.00 2224.00,1635.00
             2224.00,1635.00 2211.00,1635.00 2211.00,1635.00
             2211.00,1635.00 2201.00,1635.82 2201.00,1635.82
             2201.00,1635.82 2191.00,1635.00 2191.00,1635.00
             2180.64,1634.88 2171.24,1634.61 2161.00,1632.55
             2137.45,1627.81 2113.31,1613.42 2106.64,1589.00
             2105.43,1584.57 2103.84,1575.47 2104.09,1571.00
             2105.25,1550.51 2110.49,1533.57 2115.52,1514.00
             2115.52,1514.00 2118.89,1499.00 2118.89,1499.00
             2121.46,1488.75 2124.87,1475.53 2125.00,1465.00
             2125.09,1456.75 2125.33,1448.12 2120.35,1441.00
             2115.85,1434.54 2106.46,1428.30 2105.37,1420.00
             2104.68,1414.78 2107.59,1409.73 2112.02,1407.08
             2115.79,1404.82 2126.16,1402.65 2131.00,1400.91
             2131.00,1400.91 2157.00,1388.74 2157.00,1388.74
             2188.30,1373.58 2223.32,1354.65 2248.00,1330.00
             2260.95,1317.07 2272.24,1304.21 2272.00,1285.00
             2271.77,1267.28 2255.57,1262.39 2241.00,1260.84
             2237.90,1260.50 2236.28,1259.95 2233.00,1260.18
             2233.00,1260.18 2203.00,1263.46 2203.00,1263.46
             2165.43,1270.55 2112.65,1291.11 2079.00,1309.31
             2079.00,1309.31 2053.00,1325.00 2053.00,1325.00
             2054.77,1319.89 2060.76,1316.88 2065.00,1313.86 Z" />
</svg>
