<?xml version="1.0" encoding="UTF-8" standalone="no"?>
<!DOCTYPE svg PUBLIC "-//W3C//DTD SVG 20010904//EN"
              "http://www.w3.org/TR/2001/REC-SVG-20010904/DTD/svg10.dtd">

<svg xmlns="http://www.w3.org/2000/svg"
     width="45.8333in" height="35.4167in"
     viewBox="0 0 3300 2550">
  <path id="Selection #1"
        fill="black" stroke="black" stroke-width="1"
        d="M 1703.00,765.14
           C 1703.00,765.14 1773.00,765.14 1773.00,765.14
             1773.00,765.14 1788.00,766.00 1788.00,766.00
             1788.00,766.00 1845.00,768.91 1845.00,768.91
             1892.56,772.17 1939.82,777.25 1987.00,784.58
             2119.87,805.20 2258.85,843.41 2376.00,910.58
             2439.22,946.83 2506.13,999.77 2539.25,1066.00
             2550.46,1088.42 2561.70,1119.73 2562.00,1145.00
             2562.28,1169.11 2562.39,1183.19 2556.12,1207.00
             2545.23,1248.29 2520.27,1286.39 2491.04,1317.00
             2491.04,1317.00 2482.96,1325.91 2482.96,1325.91
             2442.93,1364.90 2394.92,1397.28 2345.00,1422.25
             2345.00,1422.25 2274.00,1454.99 2274.00,1454.99
             2172.91,1496.69 2047.63,1525.17 1939.00,1538.15
             1939.00,1538.15 1845.00,1547.09 1845.00,1547.09
             1845.00,1547.09 1814.00,1549.00 1814.00,1549.00
             1814.00,1549.00 1798.00,1550.04 1798.00,1550.04
             1798.00,1550.04 1785.00,1550.04 1785.00,1550.04
             1785.00,1550.04 1773.00,1551.00 1773.00,1551.00
             1773.00,1551.00 1669.00,1551.00 1669.00,1551.00
             1669.00,1551.00 1655.00,1550.00 1655.00,1550.00
             1655.00,1550.00 1625.00,1549.00 1625.00,1549.00
             1625.00,1549.00 1615.00,1548.00 1615.00,1548.00
             1615.00,1548.00 1606.00,1548.00 1606.00,1548.00
             1606.00,1548.00 1585.00,1546.09 1585.00,1546.09
             1541.76,1543.12 1498.91,1537.59 1456.00,1531.27
             1378.54,1519.86 1295.94,1500.00 1222.00,1474.34
             1156.42,1451.58 1091.90,1422.93 1034.00,1384.33
             981.49,1349.32 932.33,1305.16 903.75,1248.00
             893.03,1226.56 882.29,1195.11 882.00,1171.00
             881.72,1146.89 881.61,1132.81 887.88,1109.00
             910.54,1023.07 991.55,954.06 1066.00,911.72
             1196.11,837.72 1345.34,798.72 1493.00,779.28
             1530.51,774.34 1568.31,770.66 1606.00,768.00
             1606.00,768.00 1615.00,768.00 1615.00,768.00
             1615.00,768.00 1629.00,767.00 1629.00,767.00
             1629.00,767.00 1646.00,766.00 1646.00,766.00
             1651.69,765.99 1657.35,766.23 1663.00,765.14
             1663.00,765.14 1703.00,765.14 1703.00,765.14 Z
           M 1670.00,781.00
           C 1670.00,781.00 1655.00,782.00 1655.00,782.00
             1655.00,782.00 1621.00,783.91 1621.00,783.91
             1621.00,783.91 1549.00,790.28 1549.00,790.28
             1403.28,808.27 1243.61,847.19 1119.00,927.31
             1037.87,979.47 958.80,1058.84 960.00,1162.00
             960.00,1162.00 960.91,1172.00 960.91,1172.00
             967.08,1260.22 1033.69,1330.25 1103.00,1378.02
             1210.93,1452.41 1352.50,1494.81 1481.00,1516.08
             1518.92,1522.36 1556.80,1526.51 1595.00,1530.17
             1595.00,1530.17 1636.00,1533.04 1636.00,1533.04
             1636.00,1533.04 1647.00,1534.04 1647.00,1534.04
             1647.00,1534.04 1658.00,1534.04 1658.00,1534.04
             1658.00,1534.04 1669.00,1535.00 1669.00,1535.00
             1669.00,1535.00 1687.00,1535.00 1687.00,1535.00
             1687.00,1535.00 1704.00,1536.00 1704.00,1536.00
             1704.00,1536.00 1746.00,1536.00 1746.00,1536.00
             1746.00,1536.00 1762.00,1535.00 1762.00,1535.00
             1762.00,1535.00 1780.00,1535.00 1780.00,1535.00
             1780.00,1535.00 1792.00,1534.04 1792.00,1534.04
             1792.00,1534.04 1803.00,1534.04 1803.00,1534.04
             1803.00,1534.04 1829.00,1532.09 1829.00,1532.09
             1866.85,1529.50 1904.39,1525.69 1942.00,1520.27
             2064.84,1502.56 2196.95,1466.37 2305.00,1404.42
             2395.93,1352.28 2491.33,1267.64 2490.00,1154.00
             2490.00,1154.00 2489.09,1144.00 2489.09,1144.00
             2482.28,1046.57 2400.01,968.50 2321.00,921.00
             2188.50,841.33 2029.71,803.10 1877.00,787.83
             1839.15,784.05 1801.06,781.06 1763.00,781.00
             1763.00,781.00 1746.00,780.14 1746.00,780.14
             1746.00,780.14 1697.00,780.14 1697.00,780.14
             1688.46,781.51 1678.72,780.99 1670.00,781.00 Z
           M 1496.00,1045.40
           C 1520.90,1035.44 1546.57,1033.52 1573.00,1031.92
             1573.00,1031.92 1586.00,1031.00 1586.00,1031.00
             1586.00,1031.00 1640.00,1029.00 1640.00,1029.00
             1640.00,1029.00 1659.00,1028.00 1659.00,1028.00
             1659.00,1028.00 1686.58,1026.42 1686.58,1026.42
             1689.65,1026.05 1694.47,1026.25 1697.00,1024.98
             1697.00,1024.98 1713.00,1011.27 1713.00,1011.27
             1723.38,1002.42 1732.63,995.50 1744.00,988.00
             1767.19,972.71 1796.16,958.30 1822.00,948.00
             1834.80,942.89 1861.46,935.65 1875.00,936.51
             1891.94,937.59 1909.86,943.44 1908.96,964.00
             1908.12,983.22 1882.24,993.75 1867.00,1000.28
             1839.50,1012.06 1796.92,1020.87 1767.00,1025.92
             1767.00,1025.92 1734.00,1030.85 1734.00,1030.85
             1730.44,1031.27 1720.67,1032.02 1718.00,1033.31
             1714.56,1034.99 1709.83,1040.17 1707.00,1043.00
             1707.00,1043.00 1685.58,1066.00 1685.58,1066.00
             1685.58,1066.00 1662.37,1094.00 1662.37,1094.00
             1650.16,1110.28 1627.77,1146.75 1618.00,1165.00
             1618.00,1165.00 1650.00,1155.31 1650.00,1155.31
             1674.15,1146.71 1695.88,1136.28 1717.00,1121.65
             1722.59,1117.78 1730.93,1108.26 1735.00,1106.74
             1739.07,1105.21 1743.76,1106.65 1745.22,1111.02
             1746.69,1115.40 1742.80,1119.50 1739.83,1122.20
             1739.83,1122.20 1726.09,1132.38 1726.09,1132.38
             1726.09,1132.38 1712.28,1148.00 1712.28,1148.00
             1691.36,1174.39 1674.88,1210.82 1681.00,1245.00
             1676.77,1240.73 1676.44,1230.07 1676.09,1224.00
             1675.88,1220.23 1676.46,1218.51 1676.84,1215.00
             1679.66,1188.60 1688.84,1170.01 1701.00,1147.00
             1701.00,1147.00 1687.00,1153.58 1687.00,1153.58
             1672.26,1159.98 1657.40,1165.71 1642.00,1170.28
             1642.00,1170.28 1623.00,1174.75 1623.00,1174.75
             1619.71,1175.32 1613.91,1175.80 1611.32,1177.74
             1608.28,1180.01 1602.74,1190.22 1600.31,1194.00
             1600.31,1194.00 1577.58,1228.00 1577.58,1228.00
             1553.52,1261.66 1532.88,1284.36 1499.00,1308.57
             1456.27,1339.11 1399.77,1358.65 1348.00,1366.27
             1348.00,1366.27 1315.00,1370.09 1315.00,1370.09
             1315.00,1370.09 1305.00,1371.00 1305.00,1371.00
             1305.00,1371.00 1287.00,1371.00 1287.00,1371.00
             1287.00,1371.00 1275.00,1370.09 1275.00,1370.09
             1234.50,1367.26 1193.63,1355.12 1157.00,1337.78
             1107.80,1314.49 1071.24,1280.76 1051.95,1229.00
             1047.24,1216.36 1042.16,1197.45 1042.00,1184.00
             1041.74,1161.76 1042.20,1147.49 1049.69,1126.00
             1074.57,1054.68 1145.17,1016.57 1216.00,1005.58
             1216.00,1005.58 1251.00,1002.00 1251.00,1002.00
             1251.00,1002.00 1274.00,1002.00 1274.00,1002.00
             1285.11,1002.02 1301.98,1004.38 1313.00,1006.60
             1365.96,1017.25 1423.71,1047.39 1439.57,1103.00
             1442.54,1113.40 1444.09,1124.18 1444.00,1135.00
             1443.92,1144.01 1442.14,1154.45 1439.33,1163.00
             1417.94,1227.98 1341.99,1250.72 1280.00,1250.00
             1280.00,1250.00 1270.00,1249.09 1270.00,1249.09
             1270.00,1249.09 1246.00,1246.41 1246.00,1246.41
             1241.69,1245.69 1236.63,1245.80 1234.00,1242.00
             1248.82,1245.74 1261.95,1245.87 1277.00,1245.96
             1277.00,1245.96 1294.00,1245.96 1294.00,1245.96
             1331.35,1243.36 1377.14,1228.74 1404.00,1202.00
             1421.15,1184.93 1433.71,1162.79 1434.00,1138.00
             1434.00,1138.00 1434.00,1131.00 1434.00,1131.00
             1433.91,1123.37 1431.87,1113.34 1429.71,1106.00
             1412.39,1047.20 1347.44,1019.55 1291.00,1014.04
             1291.00,1014.04 1283.00,1014.04 1283.00,1014.04
             1283.00,1014.04 1271.00,1013.00 1271.00,1013.00
             1208.80,1012.90 1144.00,1029.99 1099.00,1075.00
             1080.36,1093.64 1069.03,1111.82 1061.34,1137.00
             1057.49,1149.64 1055.85,1163.82 1056.00,1177.00
             1056.22,1195.80 1062.01,1215.98 1069.70,1233.00
             1089.18,1276.17 1124.92,1307.69 1168.00,1326.42
             1203.26,1341.76 1248.28,1355.94 1287.00,1356.00
             1344.31,1356.09 1402.33,1344.10 1453.00,1316.69
             1491.34,1295.96 1521.91,1267.22 1548.58,1233.00
             1548.58,1233.00 1572.98,1199.00 1572.98,1199.00
             1572.98,1199.00 1586.00,1180.00 1586.00,1180.00
             1586.00,1180.00 1571.00,1181.72 1571.00,1181.72
             1539.30,1185.85 1516.05,1194.99 1493.00,1218.00
             1483.10,1227.88 1473.69,1237.15 1473.00,1252.00
             1473.00,1252.00 1471.00,1252.00 1471.00,1252.00
             1471.31,1237.87 1478.98,1227.34 1487.87,1217.00
             1504.53,1197.62 1527.25,1183.42 1552.00,1176.88
             1552.00,1176.88 1579.00,1171.59 1579.00,1171.59
             1582.46,1171.01 1589.12,1170.38 1591.82,1168.41
             1595.07,1166.03 1600.66,1155.90 1603.00,1152.00
             1603.00,1152.00 1624.40,1116.00 1624.40,1116.00
             1642.20,1086.34 1663.56,1059.44 1688.00,1035.00
             1688.00,1035.00 1677.00,1035.96 1677.00,1035.96
             1677.00,1035.96 1663.00,1035.96 1663.00,1035.96
             1663.00,1035.96 1650.17,1036.95 1650.17,1036.95
             1650.17,1036.95 1615.00,1036.95 1615.00,1036.95
             1615.00,1036.95 1598.00,1038.00 1598.00,1038.00
             1569.41,1038.04 1527.57,1038.93 1501.00,1048.81
             1474.33,1058.73 1446.29,1077.40 1446.00,1109.00
             1446.00,1109.00 1444.00,1109.00 1444.00,1109.00
             1444.09,1077.41 1468.59,1056.37 1496.00,1045.40 Z
           M 1837.00,968.63
           C 1812.47,974.73 1793.40,983.55 1771.00,994.75
             1759.66,1000.43 1737.65,1013.42 1729.00,1022.00
             1762.02,1017.62 1813.83,1007.32 1844.00,994.42
             1857.54,988.63 1875.64,979.95 1882.00,966.00
             1869.13,962.32 1849.95,965.40 1837.00,968.63 Z
           M 1705.00,1083.33
           C 1713.16,1077.90 1720.29,1074.11 1729.00,1069.75
             1753.59,1057.46 1776.47,1047.65 1803.00,1040.14
             1814.08,1037.01 1830.61,1033.14 1842.00,1033.00
             1849.04,1032.92 1854.09,1033.19 1861.00,1034.90
             1865.09,1035.91 1868.55,1037.30 1872.00,1039.79
             1885.29,1049.38 1885.37,1066.24 1879.10,1080.00
             1876.41,1085.90 1868.20,1097.13 1863.83,1102.00
             1860.81,1105.37 1858.34,1107.38 1855.00,1110.28
             1842.05,1121.54 1833.40,1127.60 1819.00,1136.68
             1806.46,1144.58 1772.31,1163.12 1759.00,1168.00
             1763.19,1172.39 1767.57,1177.42 1770.10,1183.00
             1781.00,1207.06 1765.29,1244.92 1758.43,1269.00
             1754.10,1284.19 1748.47,1302.05 1761.10,1314.91
             1763.76,1317.61 1766.67,1319.47 1770.00,1321.22
             1774.89,1323.78 1778.70,1325.01 1784.00,1326.37
             1791.22,1328.22 1797.55,1328.99 1805.00,1329.00
             1805.00,1329.00 1837.00,1329.00 1837.00,1329.00
             1852.84,1328.81 1891.01,1323.06 1908.00,1320.42
             1908.00,1320.42 1995.00,1307.27 1995.00,1307.27
             2057.62,1298.05 2120.07,1288.57 2183.00,1281.84
             2183.00,1281.84 2250.00,1275.96 2250.00,1275.96
             2250.00,1275.96 2266.00,1275.00 2266.00,1275.00
             2266.00,1275.00 2293.00,1274.00 2293.00,1274.00
             2293.00,1274.00 2308.00,1275.00 2308.00,1275.00
             2308.00,1275.00 2322.00,1275.00 2322.00,1275.00
             2322.00,1275.00 2335.00,1275.91 2335.00,1275.91
             2335.00,1275.91 2395.00,1281.72 2395.00,1281.72
             2400.72,1282.42 2416.59,1282.86 2420.00,1287.00
             2420.00,1287.00 2363.00,1281.91 2363.00,1281.91
             2363.00,1281.91 2338.00,1280.00 2338.00,1280.00
             2338.00,1280.00 2293.00,1280.00 2293.00,1280.00
             2293.00,1280.00 2272.00,1281.00 2272.00,1281.00
             2272.00,1281.00 2262.00,1281.91 2262.00,1281.91
             2262.00,1281.91 2188.00,1289.72 2188.00,1289.72
             2188.00,1289.72 2131.00,1297.42 2131.00,1297.42
             2131.00,1297.42 2039.00,1313.61 2039.00,1313.61
             2039.00,1313.61 1911.00,1338.42 1911.00,1338.42
             1892.83,1341.70 1853.13,1348.80 1836.00,1349.00
             1836.00,1349.00 1808.00,1349.00 1808.00,1349.00
             1795.55,1348.86 1789.21,1348.37 1777.00,1345.12
             1770.27,1343.32 1763.81,1340.50 1758.00,1336.64
             1754.36,1334.23 1750.19,1331.25 1747.32,1327.96
             1740.66,1320.32 1735.99,1307.09 1736.18,1296.91
             1736.18,1296.91 1736.93,1290.00 1736.93,1290.00
             1738.77,1270.00 1746.82,1246.47 1751.00,1226.00
             1752.02,1220.99 1754.11,1208.74 1753.96,1204.00
             1753.79,1198.79 1752.56,1193.25 1749.45,1189.00
             1745.99,1184.29 1738.43,1177.80 1737.43,1172.00
             1736.69,1167.68 1739.48,1163.12 1743.04,1160.85
             1743.04,1160.85 1757.00,1156.31 1757.00,1156.31
             1757.00,1156.31 1778.00,1146.75 1778.00,1146.75
             1806.80,1132.45 1832.97,1119.06 1856.00,1096.00
             1865.46,1086.53 1875.70,1074.26 1874.96,1060.00
             1873.91,1039.98 1850.57,1039.83 1836.00,1040.00
             1825.41,1040.13 1804.57,1045.26 1794.00,1048.29
             1768.30,1055.67 1740.76,1067.00 1717.00,1079.26
             1717.00,1079.26 1694.00,1093.00 1694.00,1093.00
             1696.58,1088.31 1700.64,1086.24 1705.00,1083.33 Z" />
</svg>
