<?xml version="1.0" encoding="UTF-8" standalone="no"?>
<!DOCTYPE svg PUBLIC "-//W3C//DTD SVG 20010904//EN"
              "http://www.w3.org/TR/2001/REC-SVG-20010904/DTD/svg10.dtd">

<svg xmlns="http://www.w3.org/2000/svg"
     width="55.5556in" height="42.9306in"
     viewBox="0 0 4000 3091">
  <path id="Selection #3"
        fill="black" stroke="black" stroke-width="1"
        d="M 1651.75,1213.00
           C 1651.75,1213.00 1670.58,1179.00 1670.58,1179.00
             1699.21,1133.00 1738.41,1090.07 1783.00,1059.12
             1827.82,1028.00 1869.33,1008.42 1922.00,994.29
             1922.00,994.29 1938.00,991.00 1938.00,991.00
             1938.00,991.00 1949.00,988.31 1949.00,988.31
             1965.83,985.15 1989.98,982.20 2007.00,982.00
             2007.00,982.00 2017.00,981.05 2017.00,981.05
             2017.00,981.05 2034.00,981.05 2034.00,981.05
             2034.00,981.05 2047.00,982.00 2047.00,982.00
             2068.74,982.25 2093.68,986.25 2115.00,990.79
             2181.28,1004.90 2247.71,1036.62 2299.00,1081.18
             2333.25,1110.93 2363.18,1145.98 2386.40,1185.00
             2411.19,1226.68 2428.62,1272.36 2437.61,1320.00
             2437.61,1320.00 2440.57,1335.00 2440.57,1335.00
             2440.57,1335.00 2444.09,1372.00 2444.09,1372.00
             2444.09,1372.00 2446.00,1398.00 2446.00,1398.00
             2446.00,1398.00 2444.09,1427.00 2444.09,1427.00
             2442.33,1452.58 2439.40,1478.29 2432.20,1503.00
             2432.20,1503.00 2428.80,1517.00 2428.80,1517.00
             2428.80,1517.00 2413.05,1561.00 2413.05,1561.00
             2411.31,1565.59 2403.56,1583.68 2400.51,1586.26
             2397.81,1588.54 2390.57,1588.81 2387.00,1589.28
             2387.00,1589.28 2354.00,1594.42 2354.00,1594.42
             2354.00,1594.42 2254.00,1608.17 2254.00,1608.17
             2254.00,1608.17 2226.00,1611.00 2226.00,1611.00
             2226.00,1611.00 2186.00,1611.00 2186.00,1611.00
             2177.27,1610.99 2168.49,1609.35 2160.00,1607.35
             2144.07,1603.58 2128.65,1595.56 2125.46,1578.00
             2124.21,1571.08 2125.73,1558.96 2127.21,1552.00
             2133.06,1524.48 2150.52,1485.38 2149.98,1458.00
             2149.74,1445.24 2146.34,1433.98 2138.19,1424.01
             2138.19,1424.01 2131.00,1416.00 2131.00,1416.00
             2152.58,1406.43 2188.23,1387.63 2208.00,1374.95
             2222.48,1365.66 2236.34,1355.78 2249.00,1344.08
             2249.00,1344.08 2258.66,1334.71 2258.66,1334.71
             2270.71,1321.31 2282.00,1305.74 2282.00,1287.00
             2282.00,1280.89 2281.19,1276.22 2277.75,1271.00
             2275.57,1267.68 2272.06,1263.86 2269.00,1261.33
             2264.60,1257.68 2260.48,1255.79 2255.00,1254.38
             2248.12,1252.61 2241.08,1251.92 2234.00,1252.00
             2215.90,1252.21 2195.26,1257.61 2178.00,1262.98
             2149.81,1271.73 2120.00,1283.72 2094.00,1297.69
             2083.02,1303.59 2074.28,1307.90 2064.00,1315.29
             2060.08,1318.11 2055.44,1320.76 2053.00,1325.00
             2067.64,1313.10 2092.56,1301.84 2110.00,1294.14
             2110.00,1294.14 2127.00,1286.45 2127.00,1286.45
             2147.64,1278.12 2169.35,1271.25 2191.00,1266.12
             2199.57,1264.08 2208.21,1262.02 2217.00,1261.04
             2217.00,1261.04 2226.00,1261.04 2226.00,1261.04
             2229.87,1260.65 2231.71,1259.85 2236.00,1260.09
             2248.85,1260.82 2265.76,1263.21 2271.01,1277.00
             2272.30,1280.40 2272.04,1285.33 2272.00,1289.00
             2271.81,1305.07 2259.81,1319.20 2249.00,1330.00
             2225.13,1353.84 2186.74,1375.47 2156.00,1389.69
             2156.00,1389.69 2132.00,1400.91 2132.00,1400.91
             2127.07,1402.69 2116.92,1404.78 2113.00,1407.08
             2108.67,1409.63 2104.77,1414.71 2105.62,1420.00
             2106.85,1427.62 2117.05,1434.61 2121.01,1441.00
             2125.63,1448.45 2125.09,1457.60 2125.00,1466.00
             2124.86,1477.54 2121.29,1489.84 2118.65,1501.00
             2113.16,1524.21 2105.88,1547.09 2104.18,1571.00
             2103.94,1574.48 2105.27,1582.47 2106.13,1586.00
             2112.45,1611.99 2137.08,1627.54 2162.00,1632.55
             2172.24,1634.61 2181.64,1634.88 2192.00,1635.00
             2192.00,1635.00 2201.00,1635.66 2201.00,1635.66
             2201.00,1635.66 2208.00,1635.02 2208.00,1635.02
             2208.00,1635.02 2223.00,1635.02 2223.00,1635.02
             2223.00,1635.02 2235.00,1634.09 2235.00,1634.09
             2235.00,1634.09 2273.00,1629.29 2273.00,1629.29
             2273.00,1629.29 2287.00,1627.57 2287.00,1627.57
             2287.00,1627.57 2326.00,1620.58 2326.00,1620.58
             2326.00,1620.58 2389.00,1609.00 2389.00,1609.00
             2386.33,1614.54 2383.31,1618.86 2380.05,1624.00
             2362.68,1651.40 2344.94,1673.06 2322.00,1696.00
             2264.36,1753.64 2190.74,1792.61 2111.00,1808.81
             2089.77,1813.12 2066.67,1816.75 2045.00,1817.00
             2045.00,1817.00 2030.00,1817.96 2030.00,1817.96
             2030.00,1817.96 2018.00,1817.96 2018.00,1817.96
             2018.00,1817.96 2008.00,1817.00 2008.00,1817.00
             2008.00,1817.00 2002.00,1817.00 2002.00,1817.00
             2002.00,1817.00 1968.00,1813.28 1968.00,1813.28
             1921.92,1807.27 1880.76,1793.29 1839.00,1773.32
             1796.78,1753.12 1748.47,1717.08 1717.72,1682.00
             1710.11,1673.33 1691.77,1653.85 1688.00,1644.00
             1698.99,1642.45 1726.76,1632.18 1738.00,1627.81
             1786.16,1609.09 1827.49,1581.51 1864.00,1545.00
             1872.60,1536.40 1881.25,1527.56 1888.79,1518.00
             1903.28,1499.64 1917.41,1480.76 1929.95,1461.00
             1929.95,1461.00 1942.69,1441.00 1942.69,1441.00
             1944.35,1438.23 1949.47,1429.29 1951.53,1427.60
             1953.68,1425.83 1959.07,1425.41 1962.00,1424.79
             1962.00,1424.79 1986.00,1419.28 1986.00,1419.28
             2013.37,1411.16 2036.66,1402.39 2062.00,1389.00
             2062.00,1389.00 2051.27,1410.00 2051.27,1410.00
             2051.27,1410.00 2045.43,1423.00 2045.43,1423.00
             2039.82,1436.16 2032.07,1460.87 2032.00,1475.00
             2032.00,1475.00 2032.00,1491.00 2032.00,1491.00
             2032.09,1498.04 2032.37,1503.48 2037.00,1509.00
             2035.50,1502.81 2036.30,1502.61 2035.91,1497.00
             2035.91,1497.00 2035.04,1489.00 2035.04,1489.00
             2034.71,1480.54 2037.08,1470.19 2039.13,1462.00
             2047.01,1430.48 2065.58,1399.96 2087.28,1376.02
             2094.15,1368.44 2105.01,1364.73 2112.72,1355.00
             2120.01,1345.82 2110.17,1339.38 2105.00,1340.47
             2100.32,1341.46 2092.77,1350.42 2089.00,1353.91
             2083.62,1358.90 2070.60,1367.34 2064.00,1371.13
             2039.43,1385.23 2012.10,1397.27 1985.00,1405.57
             1985.00,1405.57 1961.00,1412.00 1961.00,1412.00
             1962.92,1405.93 1978.31,1380.88 1982.58,1374.00
             2006.10,1336.02 2015.01,1323.12 2044.58,1289.00
             2044.58,1289.00 2069.00,1263.00 2069.00,1263.00
             2072.31,1259.69 2077.79,1253.50 2082.00,1251.89
             2082.00,1251.89 2100.00,1249.72 2100.00,1249.72
             2100.00,1249.72 2135.00,1244.58 2135.00,1244.58
             2166.67,1239.66 2218.29,1228.47 2248.00,1217.69
             2264.23,1211.80 2286.75,1202.45 2300.00,1191.54
             2304.02,1188.23 2306.49,1185.36 2309.30,1181.00
             2319.07,1165.84 2312.09,1149.24 2297.00,1140.90
             2287.80,1135.82 2277.27,1134.88 2267.00,1135.00
             2261.13,1135.07 2258.58,1135.98 2253.00,1136.92
             2230.26,1140.75 2217.05,1145.40 2196.00,1154.50
             2168.51,1166.38 2140.98,1179.86 2116.00,1196.51
             2103.56,1204.81 2091.40,1213.45 2080.00,1223.13
             2080.00,1223.13 2058.00,1241.98 2058.00,1241.98
             2054.35,1243.82 2045.26,1243.80 2041.00,1244.09
             2041.00,1244.09 2010.00,1246.00 2010.00,1246.00
             2010.00,1246.00 1997.00,1247.00 1997.00,1247.00
             1997.00,1247.00 1982.00,1247.00 1982.00,1247.00
             1982.00,1247.00 1966.00,1248.00 1966.00,1248.00
             1966.00,1248.00 1903.00,1250.91 1903.00,1250.91
             1871.00,1253.11 1839.76,1255.29 1810.00,1268.70
             1778.95,1282.69 1750.03,1307.36 1750.00,1344.00
             1750.00,1344.00 1752.00,1344.00 1752.00,1344.00
             1752.09,1315.46 1773.09,1293.08 1797.00,1280.32
             1803.77,1276.71 1810.85,1274.25 1818.00,1271.58
             1840.66,1263.10 1864.15,1261.54 1888.00,1259.91
             1888.00,1259.91 1911.00,1258.00 1911.00,1258.00
             1911.00,1258.00 1937.00,1258.00 1937.00,1258.00
             1937.00,1258.00 1954.00,1257.00 1954.00,1257.00
             1954.00,1257.00 1987.00,1257.00 1987.00,1257.00
             1987.00,1257.00 2002.00,1256.00 2002.00,1256.00
             2002.00,1256.00 2022.00,1256.00 2022.00,1256.00
             2022.00,1256.00 2045.00,1255.00 2045.00,1255.00
             2045.00,1255.00 2014.61,1289.00 2014.61,1289.00
             1992.81,1315.50 1982.57,1331.30 1964.68,1360.00
             1964.68,1360.00 1941.00,1400.00 1941.00,1400.00
             1939.02,1403.30 1932.04,1415.35 1929.48,1417.01
             1927.46,1418.33 1917.00,1419.45 1914.00,1419.87
             1914.00,1419.87 1884.00,1425.64 1884.00,1425.64
             1861.41,1431.73 1838.71,1442.89 1821.00,1458.29
             1821.00,1458.29 1807.00,1472.00 1807.00,1472.00
             1794.77,1484.28 1783.39,1499.01 1783.00,1517.00
             1783.00,1517.00 1785.00,1517.00 1785.00,1517.00
             1785.46,1498.93 1800.01,1482.71 1813.00,1471.58
             1835.91,1451.96 1854.59,1442.05 1884.00,1435.23
             1884.00,1435.23 1922.00,1430.00 1922.00,1430.00
             1922.00,1430.00 1895.02,1470.00 1895.02,1470.00
             1855.78,1526.68 1810.07,1573.76 1747.00,1603.64
             1729.65,1611.86 1713.60,1618.75 1695.00,1623.85
             1691.30,1624.86 1679.94,1629.03 1677.10,1627.81
             1674.51,1626.68 1672.18,1622.38 1670.68,1620.00
             1670.68,1620.00 1659.14,1600.00 1659.14,1600.00
             1644.88,1574.30 1633.94,1547.12 1625.56,1519.00
             1625.56,1519.00 1622.00,1507.00 1622.00,1507.00
             1622.00,1507.00 1636.00,1503.14 1636.00,1503.14
             1681.15,1490.21 1722.15,1462.32 1741.13,1418.00
             1754.92,1385.81 1751.87,1345.77 1735.68,1315.00
             1723.42,1291.69 1705.26,1273.44 1684.00,1258.29
             1673.81,1251.03 1653.87,1239.23 1642.00,1236.00
             1643.86,1227.85 1648.04,1220.44 1651.75,1213.00 Z
           M 2139.00,1209.69
           C 2168.40,1193.76 2194.62,1182.62 2227.00,1174.12
             2242.36,1170.08 2265.65,1166.56 2281.00,1171.00
             2273.12,1187.05 2254.32,1195.76 2239.00,1203.24
             2222.56,1211.28 2204.61,1215.80 2187.00,1220.38
             2157.27,1228.11 2127.46,1233.98 2097.00,1238.00
             2103.95,1229.78 2128.74,1215.26 2139.00,1209.69 Z
           M 1667.00,1260.58
           C 1685.95,1271.43 1700.87,1283.14 1713.84,1301.00
             1738.94,1335.56 1745.50,1382.80 1727.69,1422.00
             1715.05,1449.81 1690.92,1470.75 1664.00,1484.25
             1652.29,1490.11 1632.91,1498.92 1620.00,1500.00
             1620.00,1500.00 1616.42,1484.00 1616.42,1484.00
             1612.75,1463.82 1609.24,1443.53 1609.00,1423.00
             1609.00,1423.00 1608.00,1408.00 1608.00,1408.00
             1608.00,1408.00 1608.00,1390.00 1608.00,1390.00
             1608.00,1390.00 1609.00,1376.00 1609.00,1376.00
             1609.29,1351.02 1614.10,1326.30 1619.58,1302.00
             1622.76,1287.88 1630.74,1259.37 1637.00,1247.00
             1646.64,1249.60 1658.29,1255.59 1667.00,1260.58 Z" />
</svg>
