<?xml version="1.0" encoding="UTF-8" standalone="no"?>
<!DOCTYPE svg PUBLIC "-//W3C//DTD SVG 20010904//EN"
              "http://www.w3.org/TR/2001/REC-SVG-20010904/DTD/svg10.dtd">

<svg xmlns="http://www.w3.org/2000/svg"
     width="55.5556in" height="42.9306in"
     viewBox="0 0 4000 3091">
  <path id="Selection #2"
        fill="black" stroke="black" stroke-width="1"
        d="M 1863.00,1000.83
           C 1875.07,995.70 1877.56,994.84 1889.99,991.05
             1889.99,991.05 1906.00,985.37 1906.00,985.37
             1932.71,977.38 1960.26,972.87 1988.00,970.95
             1994.15,970.52 1992.22,969.02 2002.00,969.00
             2002.00,969.00 2050.00,969.00 2050.00,969.00
             2059.77,969.02 2057.89,970.53 2064.00,970.95
             2064.00,970.95 2097.91,974.22 2097.91,974.22
             2097.91,974.22 2111.00,977.23 2111.00,977.23
             2111.00,977.23 2127.00,980.17 2127.00,980.17
             2127.00,980.17 2138.00,983.27 2138.00,983.27
             2138.00,983.27 2147.71,985.59 2147.71,985.59
             2147.71,985.59 2163.00,991.18 2163.00,991.18
             2163.00,991.18 2177.00,995.31 2177.00,995.31
             2177.00,995.31 2190.09,1001.10 2190.09,1001.10
             2190.09,1001.10 2210.83,1009.51 2210.83,1009.51
             2210.83,1009.51 2234.00,1021.83 2234.00,1021.83
             2287.61,1051.63 2329.03,1086.45 2366.84,1135.01
             2374.98,1145.46 2383.02,1155.88 2390.01,1167.17
             2408.45,1196.93 2421.30,1223.01 2432.95,1256.00
             2432.95,1256.00 2436.22,1264.00 2436.22,1264.00
             2436.22,1264.00 2438.67,1273.96 2438.67,1273.96
             2438.67,1273.96 2446.54,1301.00 2446.54,1301.00
             2446.54,1301.00 2450.04,1321.96 2450.04,1321.96
             2450.04,1321.96 2451.78,1328.17 2451.78,1328.17
             2451.78,1328.17 2453.24,1339.00 2453.24,1339.00
             2453.24,1339.00 2454.74,1345.00 2454.74,1345.00
             2454.74,1345.00 2457.00,1374.00 2457.00,1374.00
             2457.00,1374.00 2457.00,1424.00 2457.00,1424.00
             2457.00,1424.00 2454.74,1454.00 2454.74,1454.00
             2454.74,1454.00 2450.04,1477.00 2450.04,1477.00
             2450.04,1477.00 2446.17,1498.96 2446.17,1498.96
             2446.17,1498.96 2438.67,1525.04 2438.67,1525.04
             2438.67,1525.04 2436.03,1535.00 2436.03,1535.00
             2436.03,1535.00 2433.11,1542.00 2433.11,1542.00
             2433.11,1542.00 2426.06,1561.96 2426.06,1561.96
             2417.97,1581.60 2409.55,1598.04 2398.73,1616.28
             2398.73,1616.28 2396.02,1621.72 2396.02,1621.72
             2396.02,1621.72 2371.66,1658.01 2371.66,1658.01
             2362.60,1669.73 2339.26,1697.15 2329.00,1706.96
             2329.00,1706.96 2306.75,1726.53 2306.75,1726.53
             2306.75,1726.53 2287.00,1742.91 2287.00,1742.91
             2287.00,1742.91 2251.91,1766.67 2251.91,1766.67
             2251.91,1766.67 2228.00,1781.00 2228.00,1781.00
             2228.00,1781.00 2226.00,1780.00 2226.00,1780.00
             2222.33,1784.97 2207.08,1790.31 2201.00,1793.31
             2201.00,1793.31 2167.00,1806.54 2167.00,1806.54
             2167.00,1806.54 2155.09,1809.97 2155.09,1809.97
             2155.09,1809.97 2134.00,1816.75 2134.00,1816.75
             2134.00,1816.75 2116.00,1820.17 2116.00,1820.17
             2116.00,1820.17 2097.46,1824.55 2097.46,1824.55
             2064.99,1829.91 2031.86,1829.38 1999.00,1829.00
             1999.00,1829.00 1989.00,1828.09 1989.00,1828.09
             1966.14,1826.52 1959.16,1825.32 1937.00,1820.17
             1937.00,1820.17 1918.00,1816.51 1918.00,1816.51
             1889.90,1808.97 1854.78,1796.07 1829.00,1782.74
             1800.18,1767.84 1773.04,1749.33 1748.00,1728.76
             1748.00,1728.76 1726.00,1708.83 1726.00,1708.83
             1726.00,1708.83 1710.91,1693.00 1710.91,1693.00
             1696.44,1677.47 1684.09,1662.49 1672.04,1645.00
             1672.04,1645.00 1665.47,1636.00 1665.47,1636.00
             1665.47,1636.00 1661.41,1629.00 1661.41,1629.00
             1651.49,1612.80 1641.85,1596.36 1634.03,1579.00
             1634.03,1579.00 1629.29,1567.00 1629.29,1567.00
             1629.29,1567.00 1625.20,1559.00 1625.20,1559.00
             1625.20,1559.00 1621.44,1548.09 1621.44,1548.09
             1621.44,1548.09 1609.07,1509.83 1609.07,1509.83
             1609.07,1509.83 1605.83,1494.00 1605.83,1494.00
             1605.83,1494.00 1603.46,1486.00 1603.46,1486.00
             1603.46,1486.00 1599.91,1461.00 1599.91,1461.00
             1599.91,1461.00 1598.26,1454.00 1598.26,1454.00
             1598.26,1454.00 1596.00,1427.00 1596.00,1427.00
             1596.00,1427.00 1596.00,1372.00 1596.00,1372.00
             1596.00,1372.00 1598.25,1345.00 1598.25,1345.00
             1598.25,1345.00 1599.89,1338.00 1599.89,1338.00
             1599.89,1338.00 1603.43,1313.00 1603.43,1313.00
             1603.43,1313.00 1605.83,1304.00 1605.83,1304.00
             1610.93,1282.32 1616.69,1260.67 1625.19,1240.00
             1640.54,1202.68 1660.61,1166.95 1685.33,1135.00
             1685.33,1135.00 1711.76,1104.91 1711.76,1104.91
             1711.76,1104.91 1717.12,1098.04 1717.12,1098.04
             1717.12,1098.04 1728.00,1087.00 1728.00,1087.00
             1728.00,1087.00 1730.00,1088.00 1730.00,1088.00
             1734.21,1081.18 1747.50,1070.35 1754.00,1064.92
             1774.42,1047.88 1799.12,1032.37 1822.42,1019.52
             1822.42,1019.52 1841.00,1009.98 1841.00,1009.98
             1845.10,1008.01 1847.36,1008.14 1851.00,1005.00
             1851.00,1005.00 1853.00,1006.00 1853.00,1006.00
             1855.58,1002.63 1859.17,1002.46 1863.00,1000.83 Z
           M 2138.19,1424.01
           C 2146.34,1433.98 2149.74,1445.24 2149.98,1458.00
             2150.52,1485.38 2133.06,1524.48 2127.21,1552.00
             2125.73,1558.96 2124.21,1571.08 2125.46,1578.00
             2128.65,1595.56 2144.07,1603.58 2160.00,1607.35
             2168.49,1609.35 2177.27,1610.99 2186.00,1611.00
             2186.00,1611.00 2226.00,1611.00 2226.00,1611.00
             2226.00,1611.00 2254.00,1608.17 2254.00,1608.17
             2254.00,1608.17 2354.00,1594.42 2354.00,1594.42
             2354.00,1594.42 2387.00,1589.28 2387.00,1589.28
             2390.54,1588.81 2397.84,1588.53 2400.51,1586.26
             2403.44,1583.76 2411.70,1564.54 2413.34,1560.00
             2413.34,1560.00 2423.65,1533.00 2423.65,1533.00
             2423.65,1533.00 2432.43,1502.00 2432.43,1502.00
             2439.93,1475.67 2442.24,1451.08 2444.09,1424.00
             2444.09,1424.00 2445.99,1398.00 2445.99,1398.00
             2445.99,1398.00 2444.09,1375.00 2444.09,1375.00
             2444.09,1375.00 2440.57,1335.00 2440.57,1335.00
             2440.57,1335.00 2438.09,1323.00 2438.09,1323.00
             2438.09,1323.00 2434.76,1305.00 2434.76,1305.00
             2424.87,1262.95 2408.49,1222.13 2386.40,1185.00
             2365.95,1150.64 2338.67,1116.96 2309.00,1090.17
             2253.79,1040.31 2185.84,1005.44 2113.00,990.55
             2113.00,990.55 2103.00,988.09 2103.00,988.09
             2091.02,985.84 2059.82,982.02 2048.00,982.00
             2048.00,982.00 2031.00,981.00 2031.00,981.00
             2031.00,981.00 2000.00,982.00 2000.00,982.00
             2000.00,982.00 1975.00,984.85 1975.00,984.85
             1950.97,987.73 1927.20,992.50 1904.00,999.44
             1860.61,1012.41 1820.02,1033.36 1783.00,1059.28
             1737.68,1091.01 1701.72,1130.57 1671.95,1177.00
             1671.95,1177.00 1651.75,1213.00 1651.75,1213.00
             1648.28,1219.97 1643.75,1228.51 1642.00,1236.00
             1653.87,1239.23 1673.81,1251.03 1684.00,1258.29
             1705.26,1273.44 1723.42,1291.69 1735.68,1315.00
             1751.87,1345.77 1754.92,1385.81 1741.13,1418.00
             1722.15,1462.32 1681.15,1490.21 1636.00,1503.14
             1636.00,1503.14 1622.00,1507.00 1622.00,1507.00
             1622.00,1507.00 1625.57,1519.00 1625.57,1519.00
             1633.39,1546.41 1645.31,1575.08 1659.14,1600.00
             1659.14,1600.00 1670.68,1620.00 1670.68,1620.00
             1672.17,1622.37 1674.52,1626.69 1677.10,1627.81
             1679.94,1629.03 1691.30,1624.86 1695.00,1623.85
             1713.60,1618.75 1729.65,1611.86 1747.00,1603.64
             1810.07,1573.76 1855.78,1526.68 1895.02,1470.00
             1895.02,1470.00 1922.00,1430.00 1922.00,1430.00
             1922.00,1430.00 1884.00,1435.23 1884.00,1435.23
             1854.59,1442.05 1835.91,1451.96 1813.00,1471.58
             1799.96,1482.75 1785.44,1498.86 1785.00,1517.00
             1785.00,1517.00 1783.00,1517.00 1783.00,1517.00
             1783.39,1499.01 1794.77,1484.28 1807.00,1472.00
             1807.00,1472.00 1821.00,1458.29 1821.00,1458.29
             1838.71,1442.89 1861.41,1431.73 1884.00,1425.64
             1884.00,1425.64 1914.00,1419.87 1914.00,1419.87
             1917.00,1419.45 1927.46,1418.33 1929.48,1417.01
             1932.04,1415.35 1939.02,1403.30 1941.00,1400.00
             1941.00,1400.00 1964.68,1360.00 1964.68,1360.00
             1982.57,1331.30 1992.81,1315.50 2014.61,1289.00
             2014.61,1289.00 2045.00,1255.00 2045.00,1255.00
             2045.00,1255.00 2022.00,1256.00 2022.00,1256.00
             2022.00,1256.00 2003.00,1256.00 2003.00,1256.00
             2003.00,1256.00 1987.00,1257.00 1987.00,1257.00
             1987.00,1257.00 1954.00,1257.00 1954.00,1257.00
             1954.00,1257.00 1937.00,1258.00 1937.00,1258.00
             1937.00,1258.00 1911.00,1258.00 1911.00,1258.00
             1911.00,1258.00 1888.00,1259.91 1888.00,1259.91
             1864.15,1261.54 1840.66,1263.10 1818.00,1271.58
             1810.85,1274.25 1803.77,1276.71 1797.00,1280.32
             1773.09,1293.08 1752.09,1315.46 1752.00,1344.00
             1752.00,1344.00 1750.00,1344.00 1750.00,1344.00
             1750.03,1307.36 1778.95,1282.69 1810.00,1268.70
             1839.76,1255.29 1871.00,1253.11 1903.00,1250.91
             1903.00,1250.91 1966.00,1248.00 1966.00,1248.00
             1966.00,1248.00 1981.00,1247.00 1981.00,1247.00
             1981.00,1247.00 1996.00,1247.00 1996.00,1247.00
             1996.00,1247.00 2010.00,1246.00 2010.00,1246.00
             2010.00,1246.00 2041.00,1244.09 2041.00,1244.09
             2045.26,1243.80 2054.35,1243.82 2058.00,1241.98
             2058.00,1241.98 2080.00,1223.13 2080.00,1223.13
             2091.40,1213.45 2103.56,1204.81 2116.00,1196.51
             2140.98,1179.86 2168.51,1166.38 2196.00,1154.50
             2217.05,1145.40 2230.26,1140.75 2253.00,1136.92
             2258.58,1135.98 2261.13,1135.07 2267.00,1135.00
             2277.27,1134.88 2287.80,1135.82 2297.00,1140.90
             2312.09,1149.24 2319.07,1165.84 2309.30,1181.00
             2306.49,1185.36 2304.02,1188.23 2300.00,1191.54
             2286.75,1202.45 2264.23,1211.80 2248.00,1217.69
             2218.29,1228.47 2166.67,1239.66 2135.00,1244.58
             2135.00,1244.58 2100.00,1249.72 2100.00,1249.72
             2100.00,1249.72 2082.00,1251.89 2082.00,1251.89
             2077.79,1253.50 2072.31,1259.69 2069.00,1263.00
             2069.00,1263.00 2044.58,1289.00 2044.58,1289.00
             2015.01,1323.12 2006.10,1336.02 1982.58,1374.00
             1978.31,1380.88 1962.92,1405.93 1961.00,1412.00
             1961.00,1412.00 1985.00,1405.57 1985.00,1405.57
             2012.10,1397.27 2039.43,1385.23 2064.00,1371.13
             2070.60,1367.34 2083.62,1358.90 2089.00,1353.91
             2092.77,1350.42 2100.32,1341.46 2105.00,1340.47
             2110.17,1339.38 2120.01,1345.82 2112.72,1355.00
             2105.01,1364.73 2094.15,1368.44 2087.28,1376.02
             2065.58,1399.96 2047.01,1430.48 2039.13,1462.00
             2037.08,1470.19 2034.71,1480.54 2035.04,1489.00
             2035.04,1489.00 2035.91,1497.00 2035.91,1497.00
             2036.30,1502.61 2035.50,1502.81 2037.00,1509.00
             2035.53,1507.24 2034.44,1506.23 2033.59,1504.00
             2031.59,1498.69 2031.93,1480.47 2032.00,1474.00
             2032.21,1456.79 2043.25,1426.70 2050.78,1411.00
             2050.78,1411.00 2062.00,1389.00 2062.00,1389.00
             2036.66,1402.39 2013.37,1411.16 1986.00,1419.28
             1986.00,1419.28 1962.00,1424.79 1962.00,1424.79
             1959.07,1425.41 1953.68,1425.83 1951.53,1427.60
             1949.47,1429.29 1944.35,1438.23 1942.69,1441.00
             1942.69,1441.00 1929.95,1461.00 1929.95,1461.00
             1917.41,1480.76 1903.28,1499.64 1888.79,1518.00
             1881.25,1527.56 1872.60,1536.40 1864.00,1545.00
             1827.49,1581.51 1786.16,1609.09 1738.00,1627.81
             1726.76,1632.18 1698.99,1642.45 1688.00,1644.00
             1691.66,1653.35 1710.48,1673.99 1717.91,1682.00
             1747.59,1714.02 1775.84,1736.42 1813.00,1759.06
             1846.73,1779.61 1889.57,1796.73 1928.00,1805.96
             1928.00,1805.96 1945.00,1809.28 1945.00,1809.28
             1945.00,1809.28 1955.00,1811.57 1955.00,1811.57
             1955.00,1811.57 1986.00,1815.17 1986.00,1815.17
             1993.50,1815.93 1994.07,1816.99 2003.00,1817.00
             2003.00,1817.00 2009.00,1817.00 2009.00,1817.00
             2009.00,1817.00 2024.00,1818.00 2024.00,1818.00
             2024.00,1818.00 2053.00,1817.00 2053.00,1817.00
             2053.00,1817.00 2077.00,1814.17 2077.00,1814.17
             2104.02,1811.47 2138.43,1803.72 2164.00,1794.62
             2225.62,1772.70 2277.65,1740.35 2324.00,1694.00
             2347.57,1670.43 2373.37,1638.54 2389.00,1609.00
             2389.00,1609.00 2326.00,1620.58 2326.00,1620.58
             2326.00,1620.58 2287.00,1627.57 2287.00,1627.57
             2287.00,1627.57 2273.00,1629.29 2273.00,1629.29
             2273.00,1629.29 2235.00,1634.09 2235.00,1634.09
             2235.00,1634.09 2223.00,1635.00 2223.00,1635.00
             2223.00,1635.00 2210.00,1635.00 2210.00,1635.00
             2210.00,1635.00 2201.00,1635.66 2201.00,1635.66
             2201.00,1635.66 2192.00,1635.00 2192.00,1635.00
             2181.64,1634.88 2172.24,1634.61 2162.00,1632.55
             2137.08,1627.54 2112.45,1611.99 2106.13,1586.00
             2105.27,1582.47 2103.94,1574.48 2104.18,1571.00
             2105.88,1547.09 2113.16,1524.21 2118.65,1501.00
             2121.29,1489.84 2124.86,1477.54 2125.00,1466.00
             2125.09,1457.60 2125.63,1448.45 2121.01,1441.00
             2117.05,1434.61 2106.85,1427.62 2105.62,1420.00
             2104.77,1414.71 2108.67,1409.63 2113.00,1407.08
             2116.92,1404.78 2127.07,1402.69 2132.00,1400.91
             2132.00,1400.91 2158.00,1388.74 2158.00,1388.74
             2188.10,1374.16 2224.31,1354.58 2248.00,1331.00
             2257.38,1321.66 2269.11,1308.46 2271.77,1295.00
             2272.13,1291.71 2272.04,1287.40 2271.77,1284.00
             2271.76,1266.57 2256.26,1262.36 2242.00,1260.84
             2238.49,1260.46 2236.77,1259.88 2233.00,1260.09
             2204.12,1261.73 2181.25,1267.58 2154.00,1276.92
             2154.00,1276.92 2127.00,1286.45 2127.00,1286.45
             2127.00,1286.45 2110.00,1294.14 2110.00,1294.14
             2092.56,1301.84 2067.64,1313.10 2053.00,1325.00
             2055.44,1320.76 2060.08,1318.11 2064.00,1315.29
             2074.28,1307.90 2083.02,1303.59 2094.00,1297.69
             2120.00,1283.72 2149.81,1271.73 2178.00,1262.98
             2195.26,1257.61 2215.90,1252.21 2234.00,1252.00
             2241.08,1251.92 2248.12,1252.61 2255.00,1254.38
             2260.48,1255.79 2264.60,1257.68 2269.00,1261.33
             2272.06,1263.86 2275.57,1267.68 2277.75,1271.00
             2281.19,1276.22 2282.00,1280.89 2282.00,1287.00
             2282.00,1305.74 2270.71,1321.31 2258.66,1334.71
             2258.66,1334.71 2249.00,1344.08 2249.00,1344.08
             2236.34,1355.78 2222.48,1365.66 2208.00,1374.95
             2188.23,1387.63 2152.58,1406.43 2131.00,1416.00
             2131.00,1416.00 2138.19,1424.01 2138.19,1424.01 Z
           M 2227.00,1174.12
           C 2194.62,1182.62 2168.40,1193.76 2139.00,1209.69
             2128.74,1215.26 2103.95,1229.78 2097.00,1238.00
             2127.46,1233.98 2157.27,1228.11 2187.00,1220.38
             2204.61,1215.80 2222.56,1211.28 2239.00,1203.24
             2254.32,1195.76 2273.12,1187.05 2281.00,1171.00
             2265.65,1166.56 2242.36,1170.08 2227.00,1174.12 Z
           M 1664.00,1484.25
           C 1690.92,1470.75 1715.05,1449.81 1727.69,1422.00
             1745.50,1382.80 1738.94,1335.56 1713.84,1301.00
             1700.87,1283.14 1685.95,1271.43 1667.00,1260.58
             1658.29,1255.59 1646.64,1249.60 1637.00,1247.00
             1629.87,1262.34 1623.13,1287.27 1619.20,1304.00
             1614.82,1322.58 1609.22,1352.21 1609.00,1371.00
             1609.00,1371.00 1608.00,1392.00 1608.00,1392.00
             1608.00,1392.00 1608.00,1407.00 1608.00,1407.00
             1608.00,1407.00 1609.00,1421.00 1609.00,1421.00
             1609.24,1442.21 1612.57,1463.15 1616.42,1484.00
             1616.42,1484.00 1620.00,1500.00 1620.00,1500.00
             1632.91,1498.92 1652.29,1490.11 1664.00,1484.25 Z" />
</svg>
