<?xml version="1.0" encoding="UTF-8" standalone="no"?>
<!DOCTYPE svg PUBLIC "-//W3C//DTD SVG 20010904//EN"
              "http://www.w3.org/TR/2001/REC-SVG-20010904/DTD/svg10.dtd">

<svg xmlns="http://www.w3.org/2000/svg"
     width="11.6667in" height="11.6556in"
     viewBox="0 0 1050 1049">
  <path id="Selection"
        fill="black" stroke="black" stroke-width="1"
        d="M 67.70,267.00
           C 93.02,220.87 125.49,178.79 164.00,142.91
             209.58,100.45 262.46,65.57 320.00,41.42
             341.04,32.60 366.93,23.68 389.00,17.88
             389.00,17.88 411.00,13.12 411.00,13.12
             432.19,8.09 453.26,4.50 475.00,2.91
             475.00,2.91 485.00,2.00 485.00,2.00
             485.00,2.00 516.00,0.00 516.00,0.00
             516.00,0.00 531.00,0.00 531.00,0.00
             531.00,0.00 560.00,2.00 560.00,2.00
             579.70,2.03 608.36,7.07 628.00,11.00
             680.65,21.53 737.39,41.76 784.00,68.43
             830.13,94.82 871.64,127.07 907.91,166.00
             959.44,221.31 994.45,281.05 1019.69,352.00
             1028.38,376.41 1034.33,400.63 1039.40,426.00
             1039.40,426.00 1042.71,443.00 1042.71,443.00
             1042.71,443.00 1046.17,480.00 1046.17,480.00
             1046.17,480.00 1049.26,524.00 1049.26,524.00
             1047.86,562.05 1044.81,600.71 1036.58,638.00
             1036.58,638.00 1027.65,673.00 1027.65,673.00
             1027.65,673.00 1018.00,700.00 1018.00,700.00
             1018.00,700.00 1002.30,741.00 1002.30,741.00
             999.87,746.39 996.52,754.84 991.90,758.57
             987.60,762.05 975.85,762.52 970.00,763.42
             970.00,763.42 919.00,771.13 919.00,771.13
             919.00,771.13 823.00,784.28 823.00,784.28
             823.00,784.28 769.00,790.00 769.00,790.00
             769.00,790.00 724.00,790.00 724.00,790.00
             713.67,789.98 702.10,787.84 692.00,785.58
             668.52,780.32 648.70,769.13 646.17,743.00
             645.47,735.73 647.72,721.42 649.20,714.00
             649.20,714.00 669.42,644.00 669.42,644.00
             673.02,631.36 676.98,616.13 677.00,603.00
             677.00,603.00 677.00,594.00 677.00,594.00
             676.85,581.62 672.64,570.11 665.65,560.00
             661.50,554.00 656.66,550.78 654.00,544.00
             705.34,519.78 760.21,491.96 802.00,453.09
             802.00,453.09 810.96,444.99 810.96,444.99
             824.92,430.74 841.75,407.76 842.00,387.00
             842.06,381.67 842.35,377.14 840.64,372.00
             839.07,367.30 836.66,363.80 833.54,360.00
             821.97,345.91 804.67,341.21 787.00,341.00
             764.04,340.74 738.87,347.25 717.00,353.98
             691.77,361.74 667.08,370.84 643.00,381.70
             632.07,386.62 598.52,402.91 590.00,409.00
             590.00,409.00 649.00,382.01 649.00,382.01
             672.85,372.09 697.96,364.39 723.00,358.13
             738.38,354.28 754.07,350.03 770.00,350.00
             770.00,350.00 787.00,349.01 787.00,349.01
             802.00,349.35 823.38,353.77 830.04,369.00
             832.37,374.35 832.06,380.29 832.00,386.00
             831.72,409.20 812.57,430.87 796.00,445.28
             756.49,479.66 722.71,495.11 677.00,517.75
             677.00,517.75 653.00,528.28 653.00,528.28
             643.87,531.06 632.57,532.60 626.85,541.01
             617.61,554.62 637.29,564.18 644.02,577.00
             649.31,587.09 648.13,600.78 648.00,612.00
             647.88,621.52 643.31,640.25 640.87,650.00
             640.87,650.00 626.21,710.00 626.21,710.00
             622.69,728.59 620.13,742.45 626.21,761.00
             629.50,771.93 634.96,779.93 643.00,788.00
             660.85,805.91 684.14,814.46 709.00,816.96
             709.00,816.96 718.00,816.96 718.00,816.96
             718.00,816.96 730.00,818.00 730.00,818.00
             730.00,818.00 764.00,818.00 764.00,818.00
             764.00,818.00 803.00,814.15 803.00,814.15
             803.00,814.15 852.00,807.92 852.00,807.92
             852.00,807.92 937.00,792.58 937.00,792.58
             937.00,792.58 979.00,785.00 979.00,785.00
             974.11,796.35 965.27,808.59 958.33,819.00
             937.72,849.92 915.67,875.23 889.00,901.04
             814.90,972.75 723.26,1019.62 622.00,1038.61
             603.09,1042.16 575.91,1046.97 557.00,1047.00
             557.00,1047.00 537.00,1048.00 537.00,1048.00
             537.00,1048.00 511.00,1048.00 511.00,1048.00
             511.00,1048.00 492.00,1047.00 492.00,1047.00
             492.00,1047.00 456.00,1043.16 456.00,1043.16
             401.25,1037.31 348.88,1020.15 299.00,997.31
             240.96,970.73 179.86,926.89 137.72,879.00
             137.72,879.00 112.60,850.00 112.60,850.00
             107.48,843.59 102.03,837.11 100.00,829.00
             118.40,825.54 147.21,814.92 165.00,807.80
             224.99,783.81 274.30,750.70 320.00,705.00
             330.99,694.01 341.58,683.09 351.39,671.00
             370.01,648.05 387.31,623.84 403.31,599.00
             403.31,599.00 419.19,574.00 419.19,574.00
             421.63,570.02 425.87,562.25 429.18,559.42
             433.10,556.07 440.91,555.23 446.00,554.20
             446.00,554.20 476.00,547.00 476.00,547.00
             497.10,540.94 517.87,533.33 538.00,524.58
             538.00,524.58 570.00,510.00 570.00,510.00
             570.00,510.00 555.31,540.00 555.31,540.00
             545.64,561.05 532.27,595.91 532.00,619.00
             531.87,630.04 530.80,644.98 535.00,655.00
             535.00,655.00 534.00,637.00 534.00,637.00
             533.46,590.78 562.60,537.63 591.41,503.00
             597.10,496.17 598.81,493.65 606.00,488.01
             613.57,482.08 619.87,479.26 626.96,471.99
             630.74,468.11 635.87,462.64 632.26,457.04
             629.14,452.21 623.89,450.88 619.00,453.89
             615.50,456.05 609.40,462.75 606.00,465.91
             600.47,471.06 594.27,475.48 588.00,479.67
             558.17,499.59 520.07,517.31 486.00,528.67
             475.11,532.30 451.77,539.48 441.00,541.00
             444.37,529.19 461.02,503.58 468.00,492.00
             491.45,453.07 517.68,415.11 548.97,382.00
             548.97,382.00 577.00,352.00 577.00,352.00
             581.22,347.77 586.46,341.86 592.00,339.61
             596.51,337.78 606.74,337.30 612.00,336.58
             612.00,336.58 660.00,329.58 660.00,329.58
             699.96,323.37 765.68,308.96 803.00,295.05
             823.09,287.56 849.74,276.42 866.00,262.56
             870.28,258.91 873.61,254.74 876.62,250.00
             889.02,230.48 878.09,210.51 859.00,200.97
             848.06,195.50 835.97,194.86 824.00,195.00
             817.23,195.08 810.64,196.79 804.00,197.92
             780.94,201.84 764.44,207.58 743.00,216.58
             701.70,233.91 666.30,252.02 629.00,277.00
             614.49,286.72 600.24,297.75 587.00,309.13
             582.46,313.03 567.18,326.76 563.00,328.70
             559.53,330.31 550.98,330.98 547.00,331.00
             547.00,331.00 511.00,333.00 511.00,333.00
             511.00,333.00 483.00,335.00 483.00,335.00
             483.00,335.00 466.00,335.00 466.00,335.00
             466.00,335.00 448.00,336.00 448.00,336.00
             448.00,336.00 432.00,337.00 432.00,337.00
             432.00,337.00 402.00,338.00 402.00,338.00
             402.00,338.00 383.00,339.00 383.00,339.00
             383.00,339.00 371.00,340.00 371.00,340.00
             371.00,340.00 362.00,340.00 362.00,340.00
             343.10,341.38 323.65,343.11 305.00,346.61
             268.12,353.52 233.92,367.05 207.00,394.00
             200.09,400.92 186.01,416.87 186.00,427.00
             189.12,416.08 197.11,405.93 205.00,398.00
             225.26,377.64 244.23,369.39 271.00,360.67
             296.80,352.26 324.19,350.75 351.00,348.91
             351.00,348.91 387.00,346.00 387.00,346.00
             387.00,346.00 419.00,346.00 419.00,346.00
             419.00,346.00 436.00,345.00 436.00,345.00
             436.00,345.00 476.00,345.00 476.00,345.00
             476.00,345.00 492.00,344.00 492.00,344.00
             492.00,344.00 520.00,344.00 520.00,344.00
             520.00,344.00 532.00,343.04 532.00,343.04
             532.00,343.04 549.00,343.04 549.00,343.04
             549.00,343.04 510.44,387.00 510.44,387.00
             489.25,412.12 470.83,439.18 453.42,467.00
             453.42,467.00 420.60,522.00 420.60,522.00
             417.22,527.63 408.54,543.07 403.91,546.44
             399.78,549.46 391.11,549.78 386.00,550.59
             386.00,550.59 350.00,557.42 350.00,557.42
             325.00,562.94 295.01,577.42 275.00,593.28
             267.43,599.29 260.82,606.18 254.00,613.00
             246.60,620.40 230.68,635.64 229.00,646.00
             235.04,632.48 247.90,620.73 259.00,611.27
             284.75,589.31 310.93,575.71 344.00,568.42
             344.00,568.42 395.00,561.00 395.00,561.00
             392.66,567.12 385.25,577.12 381.33,583.00
             381.33,583.00 354.71,622.00 354.71,622.00
             315.77,676.62 268.92,726.80 211.00,761.55
             211.00,761.55 178.00,779.25 178.00,779.25
             155.43,790.53 135.14,798.48 111.00,805.72
             104.92,807.54 91.71,812.80 86.04,809.83
             82.10,807.76 78.90,801.80 76.72,798.00
             76.72,798.00 63.42,775.00 63.42,775.00
             49.54,750.44 36.30,718.82 27.35,692.00
             27.35,692.00 17.00,658.00 17.00,658.00
             37.15,652.12 51.41,648.69 71.00,639.69
             109.43,622.05 143.53,593.21 162.63,555.00
             186.02,508.21 180.13,451.80 152.94,408.00
             139.47,386.31 120.30,367.87 100.00,352.63
             86.57,342.54 58.05,324.76 42.00,321.00
             48.42,299.01 56.91,286.64 67.70,267.00 Z
           M 628.00,308.00
           C 628.00,308.00 662.00,287.23 662.00,287.23
             699.50,266.85 742.99,247.60 785.00,239.20
             802.25,235.75 826.08,232.42 843.00,238.00
             837.11,258.18 809.43,270.53 792.00,279.25
             773.07,288.71 757.07,292.84 737.00,298.42
             707.03,306.76 676.60,313.06 646.00,318.58
             646.00,318.58 611.00,324.00 611.00,324.00
             614.35,316.92 621.65,312.26 628.00,308.00 Z
           M 2.17,575.00
           C 2.17,575.00 1.00,552.00 1.00,552.00
             1.00,552.00 0.00,536.00 0.00,536.00
             0.00,536.00 0.00,513.00 0.00,513.00
             0.00,513.00 1.00,492.00 1.00,492.00
             1.00,492.00 2.04,482.00 2.04,482.00
             2.04,482.00 2.04,473.00 2.04,473.00
             5.37,439.37 13.31,403.48 22.58,371.00
             22.58,371.00 31.95,343.00 31.95,343.00
             32.93,340.37 34.56,334.70 37.39,333.67
             39.71,332.82 44.73,334.93 47.00,335.81
             56.30,339.41 62.31,342.51 71.00,347.23
             107.69,367.18 131.41,389.12 149.74,427.00
             171.85,472.69 168.73,531.92 139.97,574.00
             122.48,599.60 97.52,618.52 70.00,632.25
             55.61,639.42 30.90,650.27 15.00,651.00
             9.91,625.68 4.62,600.77 2.17,575.00 Z" />
</svg>
